<svg width="20" height="20" viewBox="0 0 20 20" fill="none" xmlns="http://www.w3.org/2000/svg">
<path fill-rule="evenodd" clip-rule="evenodd" d="M17.7285 5.58083C18.0905 5.21971 18.0905 4.63266 17.7285 4.27154C17.3673 3.90949 16.7812 3.90949 16.4192 4.27154L6.64666 14.044L3.58083 10.9791C3.21971 10.6171 2.63266 10.6171 2.27154 10.9791C1.90949 11.3412 1.90949 11.9273 2.27154 12.2884L5.94572 15.9635C5.96053 15.9793 5.97442 15.995 5.99016 16.0098C6.17072 16.1913 6.40777 16.2811 6.64481 16.2811C6.68926 16.2811 6.7337 16.2784 6.77815 16.2719C6.96982 16.245 7.15501 16.158 7.30224 16.0098C7.31798 15.995 7.33279 15.9793 7.34668 15.9626L17.7285 5.58083Z" fill="#304FFD"/>
</svg>
