<svg width="16" height="16" viewBox="0 0 16 16" fill="none" xmlns="http://www.w3.org/2000/svg">
<mask id="mask0_9_11814" style="mask-type:alpha" maskUnits="userSpaceOnUse" x="0" y="0" width="16" height="16">
<rect width="16" height="16" fill="#D9D9D9"/>
</mask>
<g mask="url(#mask0_9_11814)">
<path fill-rule="evenodd" clip-rule="evenodd" d="M12.0242 12.4244C11.7899 12.6587 11.41 12.6587 11.1757 12.4244L6.75142 8.0001L11.1757 3.57583C11.41 3.34152 11.7899 3.34152 12.0242 3.57583C12.2585 3.81015 12.2585 4.19005 12.0242 4.42436L8.44848 8.0001L12.0242 11.5758C12.2585 11.8101 12.2585 12.19 12.0242 12.4244Z" fill="#8A9099"/>
<path fill-rule="evenodd" clip-rule="evenodd" d="M8.02422 12.4244C7.7899 12.6587 7.41 12.6587 7.17569 12.4244L2.75142 8.0001L7.17569 3.57583C7.41 3.34152 7.7899 3.34152 8.02422 3.57583C8.25853 3.81015 8.25853 4.19005 8.02422 4.42436L4.44848 8.0001L8.02422 11.5758C8.25853 11.8101 8.25853 12.19 8.02422 12.4244Z" fill="#8A9099"/>
</g>
</svg>
