<svg width="16" height="16" viewBox="0 0 16 16" fill="none" xmlns="http://www.w3.org/2000/svg">
<mask id="mask0_9_11816" style="mask-type:alpha" maskUnits="userSpaceOnUse" x="0" y="0" width="16" height="16">
<rect width="16" height="16" fill="#D9D9D9"/>
</mask>
<g mask="url(#mask0_9_11816)">
<path fill-rule="evenodd" clip-rule="evenodd" d="M7.97578 3.57564C8.2101 3.34132 8.59 3.34132 8.82431 3.57564L13.2486 7.9999L8.82431 12.4242C8.59 12.6585 8.2101 12.6585 7.97578 12.4242C7.74147 12.1899 7.74147 11.81 7.97578 11.5756L11.5515 7.9999L7.97578 4.42417C7.74147 4.18985 7.74147 3.80995 7.97578 3.57564Z" fill="#304FFD"/>
<path fill-rule="evenodd" clip-rule="evenodd" d="M3.97578 3.57564C4.2101 3.34132 4.59 3.34132 4.82431 3.57564L9.24858 7.9999L4.82431 12.4242C4.59 12.6585 4.2101 12.6585 3.97578 12.4242C3.74147 12.1899 3.74147 11.81 3.97578 11.5756L7.55152 7.9999L3.97578 4.42417C3.74147 4.18985 3.74147 3.80995 3.97578 3.57564Z" fill="#304FFD"/>
</g>
</svg>
