<svg width="20" height="20" viewBox="0 0 20 20" fill="none" xmlns="http://www.w3.org/2000/svg">
<path fill-rule="evenodd" clip-rule="evenodd" d="M3.86405 10.4154C3.76062 10.2558 3.6748 10.1152 3.60705 10C3.6748 9.88479 3.76062 9.74415 3.86405 9.5846C4.16578 9.11917 4.61249 8.50046 5.19204 7.88461C6.36482 6.63836 7.99281 5.49434 10 5.49434C12.0072 5.49434 13.6352 6.63836 14.808 7.88461C15.3875 8.50046 15.8342 9.11917 16.136 9.5846C16.2394 9.74415 16.3252 9.88479 16.393 10C16.3252 10.1152 16.2394 10.2558 16.136 10.4154C15.8342 10.8808 15.3875 11.4995 14.808 12.1154C13.6352 13.3616 12.0072 14.5057 10 14.5057C7.99281 14.5057 6.36482 13.3616 5.19204 12.1154C4.61249 11.4995 4.16578 10.8808 3.86405 10.4154ZM17.9206 9.66534C17.9207 9.66561 17.9208 9.66586 17.25 10C17.9208 10.3341 17.9207 10.3344 17.9206 10.3347L17.9202 10.3353L17.9194 10.3369L17.917 10.3416L17.9093 10.3567C17.9029 10.3692 17.8938 10.3865 17.8822 10.4085C17.8589 10.4523 17.8253 10.5143 17.7814 10.592C17.6937 10.7473 17.5649 10.9657 17.396 11.2261C17.0592 11.7456 16.5585 12.4401 15.9023 13.1374C14.6035 14.5176 12.6064 16 10 16C7.39355 16 5.39654 14.5176 4.09773 13.1374C3.44149 12.4401 2.94075 11.7456 2.60399 11.2261C2.43514 10.9657 2.30629 10.7473 2.21861 10.592C2.17474 10.5143 2.1411 10.4523 2.11783 10.4085C2.10619 10.3865 2.09714 10.3692 2.09069 10.3567L2.08298 10.3416L2.08059 10.3369L2.07976 10.3353L2.07944 10.3347C2.0793 10.3344 2.07918 10.3341 2.75 10C2.07918 9.66586 2.0793 9.66561 2.07944 9.66534L2.07976 9.6647L2.08059 9.66306L2.08298 9.65835L2.09069 9.64331C2.09714 9.63082 2.10619 9.61345 2.11783 9.59154C2.1411 9.54773 2.17474 9.48568 2.21861 9.40798C2.30629 9.2527 2.43514 9.03434 2.60399 8.77389C2.94075 8.25441 3.44149 7.55992 4.09773 6.86256C5.39654 5.4824 7.39355 4 10 4C12.6064 4 14.6035 5.4824 15.9023 6.86256C16.5585 7.55992 17.0592 8.25441 17.396 8.77389C17.5649 9.03434 17.6937 9.2527 17.7814 9.40798C17.8253 9.48568 17.8589 9.54773 17.8822 9.59154C17.8938 9.61345 17.9029 9.63082 17.9093 9.64331L17.917 9.65835L17.9194 9.66306L17.9202 9.6647L17.9206 9.66534ZM17.25 10L17.9208 9.66586C18.0264 9.8762 18.0264 10.1238 17.9208 10.3341L17.25 10ZM2.07918 9.66586L2.75 10L2.07918 10.3341C1.97361 10.1238 1.97361 9.8762 2.07918 9.66586ZM8.77272 10C8.77272 9.32476 9.32219 8.77736 9.99999 8.77736C10.6778 8.77736 11.2273 9.32476 11.2273 10C11.2273 10.6752 10.6778 11.2226 9.99999 11.2226C9.32219 11.2226 8.77272 10.6752 8.77272 10ZM9.99999 7.28302C8.49376 7.28302 7.27272 8.49945 7.27272 10C7.27272 11.5005 8.49376 12.717 9.99999 12.717C11.5062 12.717 12.7273 11.5005 12.7273 10C12.7273 8.49945 11.5062 7.28302 9.99999 7.28302Z" fill="#8A9099"/>
</svg>
