<svg width="21" height="20" viewBox="0 0 21 20" fill="none" xmlns="http://www.w3.org/2000/svg">
<path fill-rule="evenodd" clip-rule="evenodd" d="M3.67908 12.5153C3.26486 12.5153 2.92908 12.8569 2.92908 13.2783C2.92908 13.6997 3.26486 14.0414 3.67908 14.0414H9.31796C9.73217 14.0414 10.068 13.6997 10.068 13.2783C10.068 12.8569 9.73217 12.5153 9.31796 12.5153H3.67908ZM18.1783 14.0414H13.2898V15.737C13.2898 16.1584 12.954 16.5 12.5398 16.5C12.1256 16.5 11.7898 16.1584 11.7898 15.737V13.3024C11.7896 13.2944 11.7894 13.2864 11.7894 13.2783C11.7894 13.2703 11.7896 13.2622 11.7898 13.2542V10.8196C11.7898 10.3981 12.1256 10.0565 12.5398 10.0565C12.954 10.0565 13.2898 10.3981 13.2898 10.8196V12.5153H18.1783C18.5925 12.5153 18.9283 12.8569 18.9283 13.2783C18.9283 13.6997 18.5925 14.0414 18.1783 14.0414ZM10.1791 6.72163C10.1791 6.30022 10.5149 5.95859 10.9291 5.95859L18.1791 5.95859C18.5933 5.95859 18.9291 6.30022 18.9291 6.72163C18.9291 7.14305 18.5933 7.48468 18.1791 7.48468L10.9291 7.48468C10.5149 7.48468 10.1791 7.14305 10.1791 6.72163ZM3.67908 5.95859C3.26486 5.95859 2.92908 6.30022 2.92908 6.72163C2.92908 7.14305 3.26486 7.48468 3.67908 7.48468H6.95642V9.18041C6.95642 9.60182 7.29221 9.94345 7.70642 9.94345C8.12063 9.94345 8.45642 9.60182 8.45642 9.18041V6.74774C8.45671 6.73907 8.45685 6.73037 8.45685 6.72163C8.45685 6.7129 8.45671 6.7042 8.45642 6.69553V4.26301C8.45642 3.84159 8.12063 3.49996 7.70642 3.49996C7.29221 3.49996 6.95642 3.84159 6.95642 4.26301V5.95859H3.67908Z" fill="#3F434A"/>
</svg>
