<svg width="18" height="18" viewBox="0 0 18 18" fill="none" xmlns="http://www.w3.org/2000/svg">
<path fill-rule="evenodd" clip-rule="evenodd" d="M14.85 11.25H11.25L11.25 14.85H14.85V11.25ZM11.25 9.90002H14.85C15.5956 9.90002 16.2 10.5044 16.2 11.25V14.85C16.2 15.5956 15.5956 16.2 14.85 16.2H11.25C10.5044 16.2 9.90002 15.5956 9.90002 14.85V11.25C9.90002 10.5044 10.5044 9.90002 11.25 9.90002Z" fill="#8A9099"/>
<path fill-rule="evenodd" clip-rule="evenodd" d="M6.75005 3.15005H3.15005L3.15005 6.75005H6.75005V3.15005ZM14.85 3.15005H11.25V6.75005H14.85V3.15005ZM6.75005 11.25H3.15005L3.15005 14.85H6.75005V11.25ZM6.75005 1.80005H3.15005C2.40446 1.80005 1.80005 2.40446 1.80005 3.15005V6.75005C1.80005 7.49563 2.40446 8.10005 3.15005 8.10005H6.75005C7.49563 8.10005 8.10005 7.49563 8.10005 6.75005V3.15005C8.10005 2.40446 7.49563 1.80005 6.75005 1.80005ZM14.85 1.80005H11.25C10.5045 1.80005 9.90005 2.40446 9.90005 3.15005V6.75005C9.90005 7.49563 10.5045 8.10005 11.25 8.10005H14.85C15.5956 8.10005 16.2 7.49563 16.2 6.75005V3.15005C16.2 2.40446 15.5956 1.80005 14.85 1.80005ZM3.15005 9.90005H6.75005C7.49563 9.90005 8.10005 10.5045 8.10005 11.25V14.85C8.10005 15.5956 7.49563 16.2 6.75005 16.2H3.15005C2.40446 16.2 1.80005 15.5956 1.80005 14.85V11.25C1.80005 10.5045 2.40446 9.90005 3.15005 9.90005Z" fill="#8A9099"/>
</svg>
