<svg width="18" height="18" viewBox="0 0 18 18" fill="none" xmlns="http://www.w3.org/2000/svg">
<path fill-rule="evenodd" clip-rule="evenodd" d="M14.85 11.25H11.25L11.25 14.85H14.85V11.25ZM11.25 9.90002H14.85C15.5956 9.90002 16.2 10.5044 16.2 11.25V14.85C16.2 15.5956 15.5956 16.2 14.85 16.2H11.25C10.5044 16.2 9.89999 15.5956 9.89999 14.85V11.25C9.89999 10.5044 10.5044 9.90002 11.25 9.90002Z" fill="#304FFD"/>
<path fill-rule="evenodd" clip-rule="evenodd" d="M6.74999 3.15005H3.14999L3.14999 6.75005H6.74999V3.15005ZM14.85 3.15005H11.25V6.75005H14.85V3.15005ZM6.74999 11.25H3.14999L3.14999 14.85H6.74999V11.25ZM6.74999 1.80005H3.14999C2.4044 1.80005 1.79999 2.40446 1.79999 3.15005V6.75005C1.79999 7.49563 2.4044 8.10005 3.14999 8.10005H6.74999C7.49557 8.10005 8.09999 7.49563 8.09999 6.75005V3.15005C8.09999 2.40446 7.49557 1.80005 6.74999 1.80005ZM14.85 1.80005H11.25C10.5044 1.80005 9.89999 2.40446 9.89999 3.15005V6.75005C9.89999 7.49563 10.5044 8.10005 11.25 8.10005H14.85C15.5956 8.10005 16.2 7.49563 16.2 6.75005V3.15005C16.2 2.40446 15.5956 1.80005 14.85 1.80005ZM3.14999 9.90005H6.74999C7.49557 9.90005 8.09999 10.5045 8.09999 11.25V14.85C8.09999 15.5956 7.49557 16.2 6.74999 16.2H3.14999C2.4044 16.2 1.79999 15.5956 1.79999 14.85V11.25C1.79999 10.5045 2.4044 9.90005 3.14999 9.90005Z" fill="#304FFD"/>
</svg>
