<svg width="18" height="18" viewBox="0 0 18 18" fill="none" xmlns="http://www.w3.org/2000/svg">
<path fill-rule="evenodd" clip-rule="evenodd" d="M1.80005 4.27498C1.80005 3.90218 2.17935 3.59998 2.64724 3.59998H15.3528C15.8207 3.59998 16.2 3.90218 16.2 4.27498C16.2 4.64777 15.8207 4.94998 15.3528 4.94998H2.64724C2.17935 4.94998 1.80005 4.64777 1.80005 4.27498Z" fill="#304FFD"/>
<path fill-rule="evenodd" clip-rule="evenodd" d="M1.80005 8.94722C1.80005 8.57442 2.17935 8.27222 2.64724 8.27222H15.3528C15.8207 8.27222 16.2 8.57442 16.2 8.94722C16.2 9.32001 15.8207 9.62222 15.3528 9.62222H2.64724C2.17935 9.62222 1.80005 9.32001 1.80005 8.94722Z" fill="#304FFD"/>
<path fill-rule="evenodd" clip-rule="evenodd" d="M1.80005 13.6195C1.80005 13.2467 2.17935 12.9445 2.64724 12.9445H15.3528C15.8207 12.9445 16.2 13.2467 16.2 13.6195C16.2 13.9923 15.8207 14.2945 15.3528 14.2945H2.64724C2.17935 14.2945 1.80005 13.9923 1.80005 13.6195Z" fill="#304FFD"/>
</svg>
