<svg width="18" height="18" viewBox="0 0 18 18" fill="none" xmlns="http://www.w3.org/2000/svg">
<path fill-rule="evenodd" clip-rule="evenodd" d="M1.79999 4.27498C1.79999 3.90218 2.17929 3.59998 2.64718 3.59998H15.3527C15.8206 3.59998 16.1999 3.90218 16.1999 4.27498C16.1999 4.64777 15.8206 4.94998 15.3527 4.94998H2.64718C2.17929 4.94998 1.79999 4.64777 1.79999 4.27498Z" fill="#8A9099"/>
<path fill-rule="evenodd" clip-rule="evenodd" d="M1.79999 8.94722C1.79999 8.57442 2.17929 8.27222 2.64718 8.27222H15.3527C15.8206 8.27222 16.1999 8.57442 16.1999 8.94722C16.1999 9.32001 15.8206 9.62222 15.3527 9.62222H2.64718C2.17929 9.62222 1.79999 9.32001 1.79999 8.94722Z" fill="#8A9099"/>
<path fill-rule="evenodd" clip-rule="evenodd" d="M1.79999 13.6195C1.79999 13.2467 2.17929 12.9445 2.64718 12.9445H15.3527C15.8206 12.9445 16.1999 13.2467 16.1999 13.6195C16.1999 13.9923 15.8206 14.2945 15.3527 14.2945H2.64718C2.17929 14.2945 1.79999 13.9923 1.79999 13.6195Z" fill="#8A9099"/>
</svg>
