<svg width="21" height="20" viewBox="0 0 21 20" fill="none" xmlns="http://www.w3.org/2000/svg">
<path fill-rule="evenodd" clip-rule="evenodd" d="M17.3351 12.5H13.3499L13.3499 16.5H17.3351V12.5ZM13.3499 11H17.3351C18.1605 11 18.8295 11.6716 18.8295 12.5V16.5C18.8295 17.3284 18.1605 18 17.3351 18H13.3499C12.5246 18 11.8555 17.3284 11.8555 16.5V12.5C11.8555 11.6716 12.5246 11 13.3499 11Z" fill="#3F434A"/>
<path fill-rule="evenodd" clip-rule="evenodd" d="M8.36855 3.5H4.38336L4.38336 7.5H8.36855V3.5ZM17.3352 3.5H13.35V7.5H17.3352V3.5ZM8.36855 12.5H4.38336L4.38336 16.5H8.36855V12.5ZM8.36855 2H4.38336C3.558 2 2.88892 2.67157 2.88892 3.5V7.5C2.88892 8.32843 3.558 9 4.38336 9H8.36855C9.1939 9 9.86299 8.32843 9.86299 7.5V3.5C9.86299 2.67157 9.1939 2 8.36855 2ZM17.3352 2H13.35C12.5247 2 11.8556 2.67157 11.8556 3.5V7.5C11.8556 8.32843 12.5247 9 13.35 9H17.3352C18.1606 9 18.8297 8.32843 18.8297 7.5V3.5C18.8297 2.67157 18.1606 2 17.3352 2ZM4.38336 11H8.36855C9.1939 11 9.86299 11.6716 9.86299 12.5V16.5C9.86299 17.3284 9.1939 18 8.36855 18H4.38336C3.558 18 2.88892 17.3284 2.88892 16.5V12.5C2.88892 11.6716 3.558 11 4.38336 11Z" fill="#3F434A"/>
</svg>
