<svg width="24" height="28" viewBox="0 0 24 28" fill="none" xmlns="http://www.w3.org/2000/svg">
<path d="M23.1429 13.9999C23.1429 14.4812 22.7572 14.8749 22.2857 14.8749H12.8572V24.4999C12.8572 24.9836 12.4738 25.3755 12 25.3755C11.5262 25.3755 11.1429 24.9812 11.1429 24.4999V14.8749H1.71432C1.24053 14.8749 0.857178 14.4839 0.857178 14.0005C0.857178 13.5187 1.24075 13.1249 1.71432 13.1249H11.1429V3.49994C11.1429 3.01629 11.5262 2.62549 12 2.62549C12.4738 2.62549 12.8572 3.0165 12.8572 3.49994V13.1249H22.2857C22.7572 13.1249 23.1429 13.5187 23.1429 13.9999Z" fill="white"/>
</svg>
