<svg width="8" height="8" viewBox="0 0 8 8" fill="none" xmlns="http://www.w3.org/2000/svg">
<path fill-rule="evenodd" clip-rule="evenodd" d="M0.196905 6.8521C-0.065635 7.11464 -0.065635 7.5403 0.196905 7.80284C0.459446 8.06539 0.885107 8.06539 1.14765 7.80284L7.80285 1.14765C8.06538 0.885107 8.06538 0.459446 7.80285 0.196906C7.54031 -0.0656353 7.11464 -0.0656353 6.8521 0.196906L0.196905 6.8521ZM4.00014 6.85203C3.73759 7.11456 3.73759 7.54022 4.00014 7.80276C4.26267 8.06531 4.68833 8.06531 4.95087 7.80276L7.80309 4.95053C8.06565 4.688 8.06565 4.26234 7.80309 3.9998C7.54056 3.73725 7.1149 3.73725 6.85236 3.9998L4.00014 6.85203Z" fill="#8A9099"/>
</svg>
