<svg width="20" height="20" viewBox="0 0 20 20" fill="none" xmlns="http://www.w3.org/2000/svg">
<mask id="mask0_10_11837" style="mask-type:alpha" maskUnits="userSpaceOnUse" x="0" y="0" width="20" height="20">
<rect width="20" height="20" fill="#D9D9D9"/>
</mask>
<g mask="url(#mask0_10_11837)">
<path fill-rule="evenodd" clip-rule="evenodd" d="M10 2C5.58167 2 2 5.58167 2 10C2 14.4183 5.58167 18 10 18C14.4175 18 18 14.4183 18 9.99917C18 5.58167 14.4175 2 10 2ZM10 16.3325C6.5025 16.3325 3.66667 13.4975 3.66667 9.99917C3.66667 6.50083 6.50167 3.66667 10 3.66667C13.4975 3.66667 16.3342 6.50167 16.3342 10C16.3342 13.4983 13.4975 16.3325 10 16.3325ZM9.16667 8.33333C9.16667 9.13917 8.6075 9.79167 7.9175 9.79167C7.22667 9.79167 6.66667 9.13917 6.66667 8.33333C6.66667 7.5275 7.22667 6.875 7.91667 6.875C8.60667 6.875 9.16667 7.5275 9.16667 8.33333ZM12.0833 9.79167C12.7742 9.79167 13.3333 9.13917 13.3333 8.33333C13.3333 7.5275 12.7733 6.875 12.0833 6.875C11.3933 6.875 10.8333 7.52833 10.8333 8.33333C10.8333 9.13833 11.3933 9.79167 12.0833 9.79167ZM12.7775 11.38C12.9383 11.0775 13.315 10.9583 13.6175 11.1133C13.9225 11.27 14.0458 11.6392 13.8925 11.945C13.8517 12.0275 12.855 13.9575 10.0008 13.9575C7.1475 13.9575 6.14917 12.0283 6.1075 11.9458C5.95333 11.6367 6.07833 11.2617 6.38667 11.1067C6.69667 10.9525 7.06667 11.0767 7.22333 11.3808C7.25833 11.4467 7.95833 12.7075 10.0008 12.7075C12.0533 12.7075 12.7492 11.435 12.7775 11.38Z" fill="#3F434A"/>
</g>
</svg>
