<svg width="35" height="35" viewBox="0 0 35 35" fill="none" xmlns="http://www.w3.org/2000/svg">
<path fill-rule="evenodd" clip-rule="evenodd" d="M32.6898 13.5449L21.5598 13.3699L21.4898 13.1249L17.8498 2.27494C17.7798 2.02994 17.4298 2.02994 17.3598 2.27494L13.6498 13.4049H13.4048L2.55484 13.5799C2.30984 13.5799 2.20484 13.9299 2.41484 14.1049L11.1998 21.3499L11.1298 21.5599L8.04984 32.3749C7.97984 32.6549 8.25984 32.8649 8.43484 32.7249L17.6048 26.2499L17.8148 26.3899L26.7748 32.6899C26.9848 32.8299 27.2648 32.6199 27.1598 32.3399L24.0098 21.3149L24.1848 21.1749L32.7948 14.0699C33.0398 13.9299 32.9348 13.5449 32.6898 13.5449Z" fill="#D7D7D7" stroke="#D0D1D1"/>
</svg>
