<svg width="20" height="21" viewBox="0 0 20 21" fill="none" xmlns="http://www.w3.org/2000/svg">
<path fill-rule="evenodd" clip-rule="evenodd" d="M7.87462 4.29333V3.62769H12.1253V5.02528H7.87462V4.35967C7.87509 4.34867 7.87534 4.33761 7.87534 4.3265C7.87534 4.31538 7.87509 4.30432 7.87462 4.29333ZM6.37483 3.5765H5.68767C5.10559 3.5765 4.54853 3.80957 4.13871 4.22256C3.72909 4.63535 3.5 5.194 3.5 5.77529V15.9169C3.5 16.4982 3.72909 17.0568 4.13871 17.4696C4.54853 17.8826 5.10559 18.1157 5.68767 18.1157H14.3137C14.8958 18.1157 15.4528 17.8826 15.8626 17.4696C16.2723 17.0568 16.5013 16.4982 16.5013 15.9169V5.77529C16.5013 5.19399 16.2723 4.63535 15.8626 4.22256C15.4528 3.80957 14.8958 3.5765 14.3137 3.5765H13.6251C13.6115 2.77927 12.9645 2.12769 12.1565 2.12769H7.84345C7.03542 2.12769 6.38841 2.77927 6.37483 3.5765ZM13.6251 5.0765C13.6115 5.87371 12.9645 6.52528 12.1565 6.52528H7.84345C7.03543 6.52528 6.38843 5.87371 6.37483 5.0765H5.68767C5.50716 5.0765 5.33287 5.14871 5.20345 5.27912C5.07384 5.40974 5 5.5881 5 5.77529V15.9169C5 16.104 5.07384 16.2824 5.20345 16.413C5.33287 16.5434 5.50716 16.6157 5.68767 16.6157H14.3137C14.4942 16.6157 14.6685 16.5434 14.7979 16.413C14.9275 16.2824 15.0013 16.104 15.0013 15.9169V5.77529C15.0013 5.5881 14.9275 5.40974 14.7979 5.27912C14.6685 5.14871 14.4942 5.0765 14.3137 5.0765H13.6251Z" fill="white"/>
</svg>
