<svg width="30" height="30" viewBox="0 0 30 30" fill="none" xmlns="http://www.w3.org/2000/svg">
<g opacity="0.7">
<path fill-rule="evenodd" clip-rule="evenodd" d="M10.8175 10.0905C11.9019 8.14381 14.0754 7.24576 16.0954 7.45371C18.0819 7.6582 19.7208 8.89424 19.9954 11.0911C20.0657 11.654 20.5443 12.0765 21.1116 12.0765C23.1737 12.0766 24.4737 13.6632 24.7127 15.7337C24.9476 17.7697 24.0814 19.7188 22.3259 20.3989L19.7019 20.399L19.1511 20.3991L19.0326 20.3992L19.0054 20.3992L18.9988 20.3992H18.9972H18.9968H18.9967H18.9967C18.3754 20.3995 17.8719 20.9034 17.8722 21.5247C17.8725 22.146 18.3765 22.6495 18.9978 22.6492H18.9978H18.9979H18.9983H18.9999L19.0063 22.6492L19.0335 22.6492L19.1517 22.6491L19.7022 22.649L22.5213 22.6488C22.6422 22.6488 22.7624 22.6294 22.8771 22.5911C26.0789 21.5238 27.2671 18.2427 26.9478 15.4757C26.6549 12.9379 25.0294 10.3489 22.0526 9.89611C21.303 7.03833 18.8737 5.47781 16.3258 5.21553C13.857 4.96139 11.1204 5.89695 9.42928 8.11343C8.07652 7.70165 6.74949 8.17713 5.88387 9.08491C5.0437 9.966 4.59771 11.2931 4.92541 12.6197C3.38235 13.8451 2.85508 15.8388 3.0331 17.6075C3.24037 19.6668 4.44241 21.8521 6.6595 22.5911C6.77421 22.6294 6.89434 22.6488 7.01525 22.6488L9.83437 22.649L10.3849 22.6491L10.5032 22.6492L10.5303 22.6492L10.5368 22.6492H10.5383H10.5387H10.5388H10.5388C11.1602 22.6495 11.6641 22.146 11.6644 21.5247C11.6647 20.9034 11.1613 20.3995 10.5399 20.3992H10.5399H10.5398H10.5394H10.5378L10.5313 20.3992L10.504 20.3992L10.3855 20.3991L9.83473 20.399L7.21616 20.3989C6.1728 19.9681 5.41373 18.7924 5.27179 17.3821C5.12438 15.9175 5.68102 14.6301 6.80498 14.0803C7.08509 13.9433 7.29576 13.6961 7.3867 13.3978C7.47764 13.0996 7.4407 12.7769 7.28468 12.5069C6.90229 11.8451 7.06018 11.1117 7.51222 10.6376C7.93414 10.1952 8.54656 10.036 9.21034 10.4788C9.47155 10.6531 9.79371 10.7103 10.0989 10.6365C10.4042 10.5627 10.6647 10.3648 10.8175 10.0905ZM15.5639 12.9756L14.7684 12.1801L13.9729 12.9756L10.4488 16.4997C10.0095 16.939 10.0095 17.6513 10.4488 18.0907C10.8881 18.53 11.6005 18.53 12.0398 18.0907L13.6434 16.4871V23.6386C13.6434 24.2599 14.1471 24.7636 14.7684 24.7636C15.3897 24.7636 15.8934 24.2599 15.8934 23.6386V16.4871L17.497 18.0907C17.9364 18.53 18.6487 18.53 19.088 18.0907C19.5273 17.6513 19.5273 16.939 19.088 16.4997L15.5639 12.9756Z" fill="#8A9099"/>
</g>
</svg>
