<svg width="9" height="8" viewBox="0 0 9 8" fill="none" xmlns="http://www.w3.org/2000/svg">
<path fill-rule="evenodd" clip-rule="evenodd" d="M7.05729 7.07277C7.23411 7.24247 7.52079 7.24247 7.69761 7.07277C7.87449 6.90308 7.87449 6.62791 7.69761 6.45822L5.1362 4.00004L7.69767 1.54187C7.87449 1.37217 7.87449 1.09703 7.69767 0.927325C7.52079 0.757623 7.23411 0.757623 7.05729 0.927325L4.49582 3.38548L1.93436 0.92733C1.75753 0.757629 1.47083 0.757629 1.294 0.92733C1.11717 1.09703 1.11717 1.37218 1.294 1.54188L3.85544 4.00004L1.29401 6.45822C1.11717 6.62791 1.11717 6.90303 1.29401 7.07277C1.47084 7.24247 1.75754 7.24247 1.93437 7.07277L4.49582 4.61459L7.05729 7.07277Z" fill="#8A9099"/>
</svg>
